# xmcd
#
# Track frame offsets: 
#        150
#        10245
#        22427
#        35205
#        47190
#        57417
#        69470
#        80576
#        90192
#        104641
#
# Disc length: 1537 seconds
#
# Revision: 0
# Processed by: cddbd v1.5.2PL0 Copyright (c) Steve Scherf et al.
# Submitted via: ExactAudioCopy v0.99pb4
#
DISCID=8a05ff0a
DTITLE=The Statler Brothers - The Legend Goes On...
DYEAR=1982
DGENRE=Country
TTITLE0=Whatever
TTITLE1=I Had Too Much to Dream
TTITLE2=I Don't Know Why
TTITLE3=Life's Railway to Heaven
TTITLE4=How do You Like Your Dream So Far
TTITLE5=A Child of the Fifties
TTITLE6=That's When it Comes Home to You
TTITLE7=I Don't Dance No More
TTITLE8=What You Are to Me
TTITLE9=(I'll Love You) All Over Again
EXTD=
EXTT0=
EXTT1=
EXTT2=
EXTT3=
EXTT4=
EXTT5=
EXTT6=
EXTT7=
EXTT8=
EXTT9=
PLAYORDER=
